<svg height="400" style='style="outline: 5px solid #800000;"' viewBox="0 0 400 400" width="400" xmlns="http://www.w3.org/2000/svg">
<rect fill="#ffffff" height="400" width="400" x="0" y="0"/>
<path d="M200,200 L200,200 L-160,200 L360,200 L40,200 L-320,200 L200,200 L360,200 L360,200 L360,280 L360,280 L200,200 L200,200 L200,40 L200,320 L200,680 L200,200 L520,200 L200,200 L200,520 L200,160 L200,520 L200,480 L200,440 L200,560 L200,40 L200,40 L80,40 L200,200 L160,200 L480,200 L40,200 L40,200 L200,200 L200,200 L120,200 L120,200 L120,200 L160,200 L160,200 L160,160 L160,160 L160,160 L160,80 L160,80 L120,80 L120,80 L120,80 L200,200 L200,200 L200,200 L520,200 L0,200 L0,200 L0,120 L0,480 L0,560 L0,200 L-40,200 L-160,200 L280,200 L280,200 L280,40 L280,-120 L280,-80" fill="none" stroke="#2f2f2f" stroke-opacity="0.9" stroke-width="5"/>
<rect fill="#ffffff" fill-opacity="0.0" height="400" stroke="#cccccc" stroke-width="15" width="400" x="0" y="0"/>
</svg>